<svg width="16" height="16" fill="none" xmlns="http://www.w3.org/2000/svg"><path d="M8 1.5c1.766 0 1.986.006 2.68.039.691.032 1.163.141 1.578.302.429.165.79.389 1.151.75a3.2 3.2 0 01.75 1.151c.16.415.27.886.302 1.579.03.693.039.913.039 2.679 0 1.766-.007 1.986-.039 2.68-.033.691-.142 1.163-.302 1.578a3.174 3.174 0 01-.75 1.151c-.325.33-.718.586-1.152.75-.414.16-.886.27-1.578.302-.693.03-.913.039-2.679.039-1.766 0-1.986-.007-2.68-.039-.692-.033-1.163-.142-1.578-.302a3.178 3.178 0 01-1.151-.75 3.187 3.187 0 01-.75-1.152c-.16-.414-.27-.886-.302-1.578C1.509 9.986 1.5 9.766 1.5 8c0-1.766.006-1.986.039-2.68.032-.692.141-1.163.302-1.578a3.17 3.17 0 01.75-1.151 3.179 3.179 0 011.151-.75c.415-.16.886-.27 1.579-.302.693-.03.913-.039 2.679-.039zm0 3.25a3.25 3.25 0 100 6.5 3.25 3.25 0 000-6.5zm4.225-.162a.812.812 0 10-1.625 0 .812.812 0 001.625 0zM8 6.05a1.95 1.95 0 110 3.9 1.95 1.95 0 010-3.9z" fill="#110A1D"/></svg>