<svg width="16" height="16" fill="none" xmlns="http://www.w3.org/2000/svg"><path d="M1.875 2.752c0-.484.403-.877.9-.877h10.45c.497 0 .9.393.9.877v10.496a.889.889 0 01-.9.877H2.775a.889.889 0 01-.9-.877V2.752zm3.784 9.378V6.598H3.821v5.532H5.66zm-.918-6.288c.64 0 1.04-.424 1.04-.955-.012-.543-.399-.956-1.028-.956-.63 0-1.04.414-1.04.956 0 .531.398.955 1.015.955h.013zm3.757 6.288V9.04c0-.165.013-.33.062-.448.132-.33.435-.672.943-.672.665 0 .93.506.93 1.25v2.96h1.84V8.957c0-1.7-.907-2.49-2.117-2.49-.975 0-1.413.536-1.658.914V7.4h-.012l.012-.02v-.782H6.661c.023.52 0 5.532 0 5.532h1.837z" fill="#110A1D"/></svg>