<svg width="51" height="50" fill="none" xmlns="http://www.w3.org/2000/svg"><path d="M8.143 42.168c-9.634-9.634-9.634-25.308 0-34.942s25.308-9.634 34.942 0 9.634 25.308 0 34.942-25.308 9.634-34.942 0zM41.921 8.39C32.929-.602 18.3-.602 9.311 8.39.317 17.382.317 32.011 9.31 41c8.991 8.993 23.62 8.993 32.61 0 8.992-8.991 8.992-23.62 0-32.61z" fill="#fff"/><path d="M42.188 19.456a.812.812 0 01-.197-.32 17.098 17.098 0 00-4.15-6.67 17.135 17.135 0 00-6.67-4.149.824.824 0 01-.56-.78V1.532a.822.822 0 011.021-.799A24.652 24.652 0 0143.08 7.226a24.68 24.68 0 016.49 11.447.82.82 0 01-.799 1.024h-6.005a.822.822 0 01-.583-.244l.005.003zm-3.182-8.154a18.775 18.775 0 014.346 6.748h4.344a23.039 23.039 0 00-5.778-9.66 23.015 23.015 0 00-9.657-5.775v4.344a18.712 18.712 0 016.747 4.346l-.002-.003zM8.143 42.167A24.673 24.673 0 011.65 30.72a.82.82 0 01.799-1.021h6.004a.82.82 0 01.78.56 17.097 17.097 0 004.15 6.67 17.134 17.134 0 006.67 4.149c.335.112.56.426.56.78v6.005a.826.826 0 01-1.024.799 24.68 24.68 0 01-11.447-6.49v-.005zM3.53 31.343a23.04 23.04 0 005.777 9.66 23.038 23.038 0 009.66 5.778v-4.344a18.737 18.737 0 01-6.748-4.344 18.773 18.773 0 01-4.346-6.748H3.53v-.002zm27.326 17.099a.822.822 0 01-.241-.584v-6.004c0-.354.225-.668.56-.78a17.097 17.097 0 006.67-4.15 17.125 17.125 0 004.15-6.67.822.822 0 01.78-.56h6.005a.82.82 0 01.799 1.021 24.705 24.705 0 01-6.493 11.448 24.653 24.653 0 01-11.447 6.492.827.827 0 01-.705-.15c-.026-.023-.052-.044-.075-.068l-.003.005zm1.406-6.007v4.343a23.04 23.04 0 009.66-5.777 23.063 23.063 0 005.777-9.66h-4.343a18.733 18.733 0 01-4.346 6.748 18.745 18.745 0 01-6.748 4.346zM1.866 19.456a.824.824 0 01-.216-.782A24.652 24.652 0 018.144 7.225 24.684 24.684 0 0119.59.734a.827.827 0 01.706.15.824.824 0 01.316.648v6.005a.822.822 0 01-.56.78 17.096 17.096 0 00-6.67 4.15 17.134 17.134 0 00-4.15 6.67.822.822 0 01-.78.56H2.448a.826.826 0 01-.584-.239l.002-.002zM18.965 2.615a23.04 23.04 0 00-9.66 5.777 23.064 23.064 0 00-5.777 9.66H7.87a18.732 18.732 0 014.346-6.747 18.773 18.773 0 016.748-4.346V2.615z" fill="#fff"/><path d="M39.008 11.302c-7.385-7.384-19.404-7.387-26.789 0-7.387 7.388-7.385 19.404 0 26.79 7.385 7.384 19.402 7.386 26.789 0 7.387-7.388 7.385-19.405 0-26.79z" fill="#fff"/><g fill="#110A1D"><path d="M32.445 31.458l-13.607.09a1.038 1.038 0 00-1.031 1.045l.003.485a1.038 1.038 0 001.045 1.03l13.607-.09a1.038 1.038 0 001.031-1.044l-.003-.485a1.038 1.038 0 00-1.045-1.031zm-11.753-8.214c-.148 0-.298-.033-.434-.098l-1.061-.513a.98.98 0 01-.48-1.247l.487-1.213a.977.977 0 011.392-.485l1.265.721a.977.977 0 01.32 1.406l-.693 1.005a.973.973 0 01-.799.422l.003.002zm9.794-.066a.982.982 0 01-.803-.412l-.687-.967a.98.98 0 01.303-1.41l1.304-.767a.98.98 0 011.399.466l.492 1.179a.984.984 0 01-.464 1.253l-1.11.555a.989.989 0 01-.431.104h-.003z"/><path d="M19.623 30.638a1.414 1.414 0 01-1.338-.932l-2.27-6.249a2.41 2.41 0 01-1.343.216 2.398 2.398 0 01-2.088-2.36A2.396 2.396 0 1117 22.58l4.319 2.09 3.303-4.786a2.416 2.416 0 01-1.014-.818 2.384 2.384 0 01-.443-1.37 2.4 2.4 0 012.559-2.408 2.401 2.401 0 012.225 2.211 2.388 2.388 0 01-1.038 2.158 2.17 2.17 0 01-.396.218l3.362 4.737 4.248-2.125a2.477 2.477 0 01-.19-.478 2.331 2.331 0 01-.086-.625 2.395 2.395 0 114.789-.03 2.398 2.398 0 01-2.229 2.405l-.15.005c-.243 0-.482-.033-.714-.103a2.323 2.323 0 01-.431-.18l-2.132 6.126a1.414 1.414 0 01-1.326.95l-12.033.079v.002z"/></g></svg>