<svg width="50" height="50" fill="none" xmlns="http://www.w3.org/2000/svg"><g fill="#7DDACF"><path d="M25.262 49.17c-6.277 0-12.55-2.388-17.33-7.168-9.554-9.554-9.554-25.098 0-34.652C12.564 2.72 18.718.173 25.263.173c6.544 0 12.698 2.546 17.328 7.177 9.555 9.554 9.555 25.098 0 34.652-4.774 4.775-11.051 7.167-17.328 7.167zM9.219 40.715c8.845 8.844 23.236 8.844 32.08 0 8.844-8.844 8.844-23.235 0-32.08-4.286-4.286-9.982-6.642-16.043-6.642-6.06 0-11.756 2.362-16.042 6.642-8.844 8.845-8.844 23.236 0 32.08h.005z"/><path d="M26.169 19.518l-4.538 6.36h2.721v4.538l4.538-6.355h-2.72v-4.543z"/><path d="M25.257 15.983c-4.97 0-9.004 4.034-9.004 9.004s4.034 8.994 9.004 8.994 9.004-4.034 9.004-8.994-4.034-9.004-9.004-9.004zm0 16.887a7.905 7.905 0 01-7.903-7.903 7.905 7.905 0 017.903-7.903 7.905 7.905 0 017.903 7.903 7.905 7.905 0 01-7.903 7.903z"/><path d="M39.175 10.761C35.46 7.041 30.516 5 25.258 5a19.565 19.565 0 00-13.918 5.76c-7.671 7.672-7.671 20.159 0 27.835a19.617 19.617 0 0013.918 5.758c5.042 0 10.079-1.92 13.917-5.758 7.672-7.671 7.672-20.158 0-27.835zM25.258 37.202c-6.73 0-12.21-5.48-12.21-12.21 0-2.973 1.065-5.7 2.835-7.83l-1.492-1.492a1.098 1.098 0 111.554-1.554l1.492 1.492a12.09 12.09 0 016.725-2.784v-1.008h-1.009c-.89 0-1.625-.736-1.625-1.626v-.849c0-.9.735-1.626 1.625-1.626h4.22c.89 0 1.625.726 1.625 1.626v.85c0 .89-.736 1.625-1.626 1.625h-1.008v1.008a12.146 12.146 0 016.725 2.784l1.492-1.492a1.102 1.102 0 011.553 0 1.102 1.102 0 010 1.554l-1.492 1.492a12.2 12.2 0 012.835 7.83c0 6.73-5.48 12.21-12.209 12.21h-.01z"/></g></svg>