<svg width="50" height="50" fill="none" xmlns="http://www.w3.org/2000/svg"><g fill="#478BF9"><path d="M24.954 49.405c-13.506 0-24.49-10.99-24.49-24.491 0-13.5 10.99-24.49 24.49-24.49 13.5 0 24.49 10.99 24.49 24.49 0 13.5-10.99 24.49-24.49 24.49zm0-47.35c-12.605 0-22.86 10.254-22.86 22.859 0 12.605 10.255 22.86 22.86 22.86 12.606 0 22.86-10.255 22.86-22.86 0-12.606-10.254-22.86-22.86-22.86z"/><path d="M40.93 7.442l-7.581 7.582 1.492 1.491 7.581-7.582-1.491-1.491zM14.835 33.537L7.253 41.12l1.491 1.492 7.582-7.582-1.491-1.492zm20.235.007l-1.491 1.492 7.581 7.582 1.492-1.492-7.582-7.581zM8.742 7.213L7.251 8.705l7.578 7.578 1.492-1.491-7.579-7.579zm22.185 18.36a1.255 1.255 0 000-1.78l-1.05-1.045a1.255 1.255 0 00-1.78 0l-.565.566-.654-.654a1.255 1.255 0 00-1.78 0l-.566.572-.653-.659a1.255 1.255 0 00-1.78 0l-3.474 3.473c-.025.026-.025.067 0 .098a1.2 1.2 0 001.688 0l2.238-2.238a.618.618 0 01.875 0l.165.164c.03.031.03.078 0 .108l-1.868 1.868c-.026.026-.026.067 0 .098a1.2 1.2 0 001.688 0l2.145-2.146a.618.618 0 01.875 0l.164.165c.026.026.026.067 0 .098l-1.8 1.8c-.026.026-.026.067 0 .098a1.198 1.198 0 001.687 0l2.074-2.073a.618.618 0 01.874 0l.355.355a.363.363 0 010 .51l-.056.056a.363.363 0 01-.51 0l-.458-.458c-.025-.026-.066-.026-.097 0l-.793.792c-.025.026-.025.067 0 .098l.715.715a1.255 1.255 0 001.78 0l.567-.566-.006-.015z"/><path d="M24.955 6.134c-10.373 0-18.78 8.407-18.78 18.78 0 10.372 8.407 18.78 18.78 18.78 10.372 0 18.78-8.408 18.78-18.78 0-10.373-8.408-18.78-18.78-18.78zm.766 5.799a12.959 12.959 0 017.872 3.262l-2.711 2.711a9.154 9.154 0 00-5.16-2.14v-3.833zm-1.528 0v3.833a9.118 9.118 0 00-5.16 2.14l-2.712-2.711a12.958 12.958 0 017.872-3.262zm-8.952 4.342l2.711 2.712a9.154 9.154 0 00-2.14 5.16h-3.833a12.958 12.958 0 013.262-7.872zm-3.262 9.4h3.833a9.118 9.118 0 002.14 5.16l-2.711 2.712a12.958 12.958 0 01-3.262-7.872zM24.193 37.89a12.958 12.958 0 01-7.872-3.262l2.712-2.712a9.154 9.154 0 005.16 2.14v3.834zm-7.13-12.981a7.894 7.894 0 017.892-7.893 7.894 7.894 0 11-7.893 7.893zm8.658 12.98v-3.832a9.118 9.118 0 005.16-2.14l2.712 2.71a12.959 12.959 0 01-7.872 3.263zm8.953-4.342l-2.712-2.711a9.153 9.153 0 002.14-5.16h3.834a12.958 12.958 0 01-3.262 7.871zm-.571-9.4a9.118 9.118 0 00-2.14-5.16l2.71-2.712a12.958 12.958 0 013.263 7.872h-3.833z"/></g></svg>