<svg width="100" height="100" fill="none" xmlns="http://www.w3.org/2000/svg"><g fill="#9DADF2"><path d="M49.733 100c-12.7 0-25.387-4.83-35.057-14.5-19.329-19.328-19.329-50.772 0-70.101C24.044 6.03 36.493.879 49.732.879c13.24 0 25.689 5.152 35.057 14.52 19.329 19.329 19.329 50.773 0 70.102C75.129 95.16 62.43 100 49.733 100zM17.278 82.899c17.893 17.892 47.006 17.892 64.898 0 17.893-17.893 17.893-47.006 0-64.898-8.67-8.67-20.193-13.438-32.454-13.438S25.938 9.341 17.268 18.001c-17.893 17.892-17.893 47.005 0 64.898h.01z"/><path d="M49.077 68.993c.177.427.593.676 1.03.676a1.3 1.3 0 00.438-.083 25.699 25.699 0 009.2-6.568 1.117 1.117 0 00-.093-1.571 1.117 1.117 0 00-1.572.093 23.265 23.265 0 01-8.4 5.996 1.117 1.117 0 00-.593 1.457h-.01z"/><path d="M68.623 33.312l-18.486-7.39a1.15 1.15 0 00-.833 0l-18.486 7.39a1.095 1.095 0 00-.697 1.03v13.24c.02 12.22 7.744 23.264 19.214 27.469a1.195 1.195 0 00.77 0C61.576 70.835 69.3 59.8 69.32 47.582v-13.24c0-.458-.27-.864-.697-1.03zm-1.53 14.27c-.021 11.117-6.995 21.244-17.362 25.23C39.364 68.827 32.38 58.7 32.359 47.583v-12.48L49.73 28.16l17.361 6.942v12.48z"/><path d="M42.008 35.05a1.103 1.103 0 00-.853 0l-4.403 1.76a1.095 1.095 0 00-.697 1.03v4.694c0 .614.5 1.114 1.113 1.114.614 0 1.114-.5 1.114-1.114V38.6l3.695-1.478c.281-.115.49-.323.614-.604a1.1 1.1 0 000-.854 1.143 1.143 0 00-.593-.614h.01z"/><path d="M77.888 22.3c-7.515-7.526-17.518-11.658-28.156-11.658-10.637 0-20.63 4.143-28.155 11.658-15.52 15.519-15.52 40.78 0 56.31 7.765 7.765 17.955 11.637 28.155 11.637 10.2 0 20.39-3.882 28.156-11.636 15.519-15.52 15.519-40.782 0-56.311zM72.38 47.582c.032 14.125-8.993 26.48-22.451 30.758a.642.642 0 01-.396 0c-13.458-4.278-22.482-16.633-22.451-30.758V31.96c0-.26.156-.5.406-.604l22.004-8.795a.611.611 0 01.24-.042.6.6 0 01.239.042l22.003 8.806c.25.093.406.333.406.603v15.624-.01z"/></g></svg>