<svg width="50" height="50" fill="none" xmlns="http://www.w3.org/2000/svg"><g fill="#fff"><path d="M24.8 49.66C11.295 49.66.31 38.67.31 25.17.31 11.667 11.3.677 24.8.677c13.501 0 24.491 10.99 24.491 24.491 0 13.5-10.99 24.49-24.49 24.49zm0-47.35c-12.605 0-22.86 10.254-22.86 22.86 0 12.605 10.255 22.859 22.86 22.859 12.606 0 22.86-10.254 22.86-22.86 0-12.605-10.254-22.86-22.86-22.86z"/><path d="M40.78 7.693l-7.58 7.582 1.492 1.492 7.581-7.582-1.491-1.492zM14.683 33.792L7.1 41.374l1.491 1.492 7.582-7.582-1.491-1.492zm20.237-.002l-1.491 1.492 7.582 7.582 1.491-1.491-7.582-7.582zM8.598 7.463L7.107 8.955l7.578 7.578 1.492-1.491-7.579-7.579zM30.78 25.828a1.254 1.254 0 000-1.78l-1.05-1.045a1.255 1.255 0 00-1.78 0l-.566.566-.653-.654a1.255 1.255 0 00-1.78 0l-.567.572-.653-.659a1.255 1.255 0 00-1.78 0l-3.473 3.473c-.026.026-.026.067 0 .098.463.463 1.22.463 1.687 0l2.239-2.239a.618.618 0 01.874 0l.165.165c.03.031.03.077 0 .108l-1.868 1.868c-.026.026-.026.067 0 .098a1.2 1.2 0 001.688 0l2.145-2.146a.618.618 0 01.875 0l.165.165c.025.026.025.067 0 .098l-1.801 1.8c-.026.026-.026.067 0 .098.463.463 1.22.463 1.687 0l2.074-2.073a.618.618 0 01.874 0l.355.355a.363.363 0 010 .509l-.056.057a.363.363 0 01-.51 0l-.457-.458c-.026-.026-.067-.026-.098 0l-.792.792c-.026.026-.026.067 0 .098l.715.715a1.255 1.255 0 001.78 0l.566-.566-.005-.015z"/><path d="M24.801 6.384c-10.372 0-18.78 8.407-18.78 18.78 0 10.372 8.408 18.78 18.78 18.78 10.373 0 18.78-8.408 18.78-18.78 0-10.373-8.407-18.78-18.78-18.78zm.767 5.799a12.958 12.958 0 017.872 3.262l-2.712 2.711a9.154 9.154 0 00-5.16-2.14v-3.833zm-1.528 0v3.833a9.118 9.118 0 00-5.16 2.14l-2.712-2.711a12.958 12.958 0 017.872-3.262zm-8.953 4.342l2.712 2.712a9.153 9.153 0 00-2.14 5.16h-3.834a12.958 12.958 0 013.262-7.872zm-3.262 9.4h3.833a9.117 9.117 0 002.14 5.16l-2.71 2.712a12.958 12.958 0 01-3.263-7.872zM24.04 38.14a12.958 12.958 0 01-7.872-3.262l2.711-2.712a9.153 9.153 0 005.16 2.14v3.834zm-7.131-12.981a7.894 7.894 0 017.892-7.893 7.894 7.894 0 017.893 7.893A7.894 7.894 0 0124.8 33.05a7.894 7.894 0 01-7.892-7.892zm8.659 12.98v-3.832a9.118 9.118 0 005.16-2.14l2.712 2.71a12.958 12.958 0 01-7.872 3.263zm8.952-4.342l-2.711-2.711a9.154 9.154 0 002.14-5.16h3.833a12.958 12.958 0 01-3.262 7.871zm-.57-9.4a9.118 9.118 0 00-2.141-5.16l2.711-2.712a12.958 12.958 0 013.262 7.872H33.95z"/></g></svg>