<svg width="1" height="50" fill="none" xmlns="http://www.w3.org/2000/svg"><path d="M25.41 49.833c-13.505 0-24.49-10.99-24.49-24.49C.92 11.84 11.91.851 25.41.851c13.502 0 24.491 10.99 24.491 24.49 0 13.501-10.99 24.49-24.49 24.49zm0-47.35c-12.605 0-22.859 10.254-22.859 22.86 0 12.605 10.254 22.859 22.86 22.859 12.605 0 22.86-10.254 22.86-22.86 0-12.605-10.255-22.86-22.86-22.86z" fill="#9DADF2"/><path d="M5.093 38.313c-.036 0-.067 0-.098-.005a.813.813 0 01-.602-.391A24.446 24.446 0 01.92 25.342c0-4.435 1.199-8.782 3.473-12.574a.814.814 0 01.602-.391.827.827 0 01.679.231l4.209 4.209a.816.816 0 01.154.936 16.963 16.963 0 00-1.77 7.584c0 2.66.597 5.212 1.77 7.584a.813.813 0 01-.154.937l-4.209 4.208a.814.814 0 01-.576.242l-.005.005zm.18-23.79a22.814 22.814 0 00-2.722 10.82c0 3.786.936 7.506 2.722 10.82l3.046-3.046a18.606 18.606 0 01-1.683-7.775 18.6 18.6 0 011.683-7.774l-3.046-3.046z" fill="#9DADF2"/></svg>