<svg width="16" height="16" fill="none" xmlns="http://www.w3.org/2000/svg"><g fill="#110A1D"><path fill-rule="evenodd" clip-rule="evenodd" d="M1.311 4.54a.317.317 0 01.261-.14h2.212a.32.32 0 01.29.193c.135.298.266.599.395.897.3.69.593 1.365.908 1.938.223.406.446.738.673.974.096.1.19.18.28.239V5.82l-.662-.867a.356.356 0 01-.04-.36.321.321 0 01.29-.194h3.075c.178 0 .322.152.322.34v3.187c.368-.383.655-.82.918-1.288.151-.27.292-.545.435-.827l.106-.205c.18-.35.368-.709.584-1.054a.318.318 0 01.268-.153h2.119c.1 0 .194.049.255.133a.356.356 0 01.056.294c-.405 1.623-1.195 2.756-1.948 3.837l-.089.128a10.327 10.327 0 012.403 3.476.357.357 0 01-.024.324.318.318 0 01-.27.155h-2.33a.312.312 0 01-.211-.082 6.944 6.944 0 01-.654-.706l-.117-.142a10.433 10.433 0 00-.453-.526c-.298-.315-.618-.572-1.048-.717v1.833c0 .171-.12.316-.282.337-2.614.351-4.372-1.007-5.556-2.747-1.138-1.671-1.773-3.73-2.174-5.032l-.037-.12a.356.356 0 01.045-.305zm.705.54C2.42 6.378 3.013 8.15 4 9.6c1.049 1.54 2.517 2.682 4.671 2.5v-1.953c0-.099.04-.193.112-.258a.31.31 0 01.258-.078c.808.13 1.34.536 1.778 1 .172.182.334.379.488.567l.11.132c.165.198.327.386.503.557h1.696a9.58 9.58 0 00-2.239-2.962.354.354 0 01-.053-.46c.088-.13.177-.256.264-.383.682-.98 1.332-1.914 1.726-3.182h-1.512a15.94 15.94 0 00-.462.851l-.102.2c-.144.282-.292.572-.45.855-.396.704-.874 1.395-1.608 1.948a.307.307 0 01-.335.025.343.343 0 01-.174-.302V5.08H6.593l.31.406c.046.06.071.136.071.214v3.42a.35.35 0 01-.108.254.31.31 0 01-.25.084c-.395-.049-.731-.273-1.017-.57-.287-.298-.543-.69-.779-1.118-.331-.603-.645-1.326-.952-2.031a53.814 53.814 0 00-.288-.659H2.016z"/><path d="M4 9.6c-.987-1.45-1.58-3.222-1.984-4.52H3.58c.096.215.192.436.288.659.307.705.62 1.428.952 2.03.236.43.492.821.779 1.119.286.297.622.521 1.016.57a.31.31 0 00.251-.084.35.35 0 00.108-.254V5.7a.353.353 0 00-.071-.214l-.31-.406H8.67v3.577c0 .127.067.244.174.302a.307.307 0 00.335-.025c.734-.553 1.212-1.244 1.607-1.948.159-.283.307-.573.45-.856l.103-.199c.15-.293.3-.577.462-.85h1.512c-.394 1.267-1.044 2.201-1.726 3.181a86.83 86.83 0 00-.264.382.354.354 0 00.053.46 9.58 9.58 0 012.239 2.963H11.92a7.05 7.05 0 01-.503-.557 35.681 35.681 0 01-.11-.132 11.327 11.327 0 00-.488-.567c-.438-.464-.97-.87-1.778-1a.31.31 0 00-.258.078.349.349 0 00-.112.258V12.1c-2.154.182-3.622-.96-4.671-2.5z"/></g></svg>