<svg width="16" height="16" fill="none" xmlns="http://www.w3.org/2000/svg"><path d="M6.667 10l3.46-2-3.46-2v4zm7.706-5.22c.087.313.147.733.187 1.267.047.533.067.993.067 1.393l.04.56c0 1.46-.107 2.533-.294 3.22-.166.6-.553.987-1.153 1.153-.313.087-.887.147-1.767.187a44.09 44.09 0 01-2.393.067l-1.06.04c-2.793 0-4.533-.107-5.22-.294-.6-.166-.987-.553-1.153-1.153-.087-.313-.147-.733-.187-1.267a16.039 16.039 0 01-.067-1.393L1.333 8c0-1.46.107-2.533.294-3.22.166-.6.553-.987 1.153-1.153.313-.087.887-.147 1.767-.187a44.43 44.43 0 012.393-.067L8 3.333c2.793 0 4.533.107 5.22.294.6.166.987.553 1.153 1.153z" fill="#1E1231"/></svg>